<?xml version="1.0" encoding="UTF-8" standalone="no"?>
<!DOCTYPE svg PUBLIC "-//W3C//DTD SVG 1.1//EN" "http://www.w3.org/Graphics/SVG/1.1/DTD/svg11.dtd">
<svg width="100%" height="100%" viewBox="0 0 697 473" version="1.1" xmlns="http://www.w3.org/2000/svg" xmlns:xlink="http://www.w3.org/1999/xlink" xml:space="preserve" xmlns:serif="http://www.serif.com/" style="fill-rule:evenodd;clip-rule:evenodd;stroke-linejoin:round;stroke-miterlimit:2;">
    <g transform="matrix(1,0,0,1,-2073.63,-1406.06)">
        <g id="default-image" serif:id="default image" transform="matrix(3.22343,0,0,3.22343,2976.19,1406.06)">
            <rect x="-280" y="0" width="216" height="146.574" style="fill:none;"/>
            <clipPath id="_clip1">
                <rect x="-280" y="0" width="216" height="146.574"/>
            </clipPath>
            <g clip-path="url(#_clip1)">
                <g transform="matrix(1,0,0,1,-280,-2.27374e-13)">
                    <rect x="0" y="0" width="216" height="146.574" style="fill:rgb(240,240,240);"/>
                </g>
                <g id="file-image-box" transform="matrix(2.72222,0,0,2.72222,-204.665,40.6254)">
                    <path d="M8.499,13.498L10.999,16.504L14.499,11.998L18.999,17.998L4.999,17.998M20.999,18.998L20.999,4.998C20.999,3.893 20.103,2.998 18.999,2.998L4.999,2.998C3.895,2.998 2.999,3.893 2.999,4.998L2.999,18.998C2.999,20.103 3.895,20.998 4.999,20.998L18.999,20.998C20.103,20.998 20.999,20.103 20.999,18.998Z" style="fill:rgb(211,215,236);fill-rule:nonzero;"/>
                </g>
            </g>
        </g>
    </g>
</svg>
