<?xml version="1.0" encoding="UTF-8" standalone="no"?>
<!DOCTYPE svg PUBLIC "-//W3C//DTD SVG 1.1//EN" "http://www.w3.org/Graphics/SVG/1.1/DTD/svg11.dtd">
<svg width="100%" height="100%" viewBox="0 0 216 147" version="1.1" xmlns="http://www.w3.org/2000/svg" xmlns:xlink="http://www.w3.org/1999/xlink" xml:space="preserve" xmlns:serif="http://www.serif.com/" style="fill-rule:evenodd;clip-rule:evenodd;stroke-linejoin:round;stroke-miterlimit:2;">
    <g transform="matrix(1,0,0,1,-216,-200.5)">
        <g id="placeholder" transform="matrix(1,0,0,1,496,200.5)">
            <rect x="-280" y="0" width="216" height="146.574" style="fill:none;"/>
            <g transform="matrix(1,0,0,1,-280,0)">
                <rect x="0" y="0" width="216" height="146.574" style="fill:rgb(239,239,239);"/>
            </g>
            <g transform="matrix(1,0,0,1,-486,-216.713)">
                <path d="M346,274C346,265.169 338.831,258 330,258L298,258C289.169,258 282,265.169 282,274L282,306C282,314.831 289.169,322 298,322L330,322C338.831,322 346,314.831 346,306L346,274Z" style="fill:rgb(208,136,62);fill-opacity:0.48;"/>
            </g>
            <g transform="matrix(0.611362,0,0,0.646465,-331.506,-106.007)">
                <g transform="matrix(77.1429,0,0,77.1429,241,305)">
                    <path d="M0.301,-0.201L0.207,-0.201L0.207,-0.249C0.207,-0.266 0.209,-0.282 0.212,-0.296C0.215,-0.31 0.22,-0.323 0.227,-0.334C0.233,-0.345 0.241,-0.356 0.25,-0.367C0.259,-0.377 0.269,-0.387 0.28,-0.398L0.317,-0.433C0.332,-0.446 0.344,-0.46 0.354,-0.475C0.363,-0.49 0.368,-0.509 0.368,-0.532C0.368,-0.564 0.358,-0.59 0.338,-0.609C0.317,-0.628 0.291,-0.637 0.259,-0.637C0.226,-0.637 0.199,-0.626 0.179,-0.605C0.159,-0.584 0.147,-0.558 0.144,-0.527L0.048,-0.538C0.052,-0.567 0.06,-0.592 0.073,-0.616C0.086,-0.639 0.101,-0.658 0.121,-0.674C0.139,-0.69 0.161,-0.702 0.186,-0.711C0.211,-0.719 0.237,-0.723 0.265,-0.723C0.293,-0.723 0.319,-0.719 0.344,-0.711C0.368,-0.703 0.389,-0.691 0.408,-0.676C0.427,-0.66 0.441,-0.641 0.452,-0.618C0.463,-0.595 0.468,-0.568 0.468,-0.538C0.468,-0.517 0.466,-0.498 0.461,-0.482C0.456,-0.466 0.45,-0.452 0.442,-0.439C0.433,-0.426 0.423,-0.413 0.411,-0.402C0.399,-0.391 0.386,-0.379 0.372,-0.367C0.359,-0.356 0.347,-0.346 0.338,-0.337C0.329,-0.328 0.321,-0.318 0.316,-0.309C0.311,-0.3 0.307,-0.289 0.305,-0.278C0.302,-0.267 0.301,-0.253 0.301,-0.236L0.301,-0.201ZM0.326,-0.06C0.326,-0.043 0.32,-0.027 0.307,-0.014C0.294,-0.001 0.278,0.006 0.259,0.006C0.24,0.006 0.225,-0 0.212,-0.014C0.199,-0.027 0.192,-0.042 0.192,-0.059C0.192,-0.077 0.198,-0.093 0.211,-0.106C0.224,-0.118 0.24,-0.125 0.259,-0.125C0.278,-0.125 0.294,-0.119 0.307,-0.106C0.32,-0.093 0.326,-0.078 0.326,-0.06Z" style="fill:rgb(159,125,73);fill-rule:nonzero;"/>
                </g>
            </g>
        </g>
    </g>
</svg>
