<?xml version="1.0" encoding="UTF-8" standalone="no"?>
<!DOCTYPE svg PUBLIC "-//W3C//DTD SVG 1.1//EN" "http://www.w3.org/Graphics/SVG/1.1/DTD/svg11.dtd">
<svg width="100%" height="100%" viewBox="0 0 300 300" version="1.1" xmlns="http://www.w3.org/2000/svg" xmlns:xlink="http://www.w3.org/1999/xlink" xml:space="preserve" xmlns:serif="http://www.serif.com/" style="fill-rule:evenodd;clip-rule:evenodd;stroke-linejoin:round;stroke-miterlimit:2;">
    <rect id="Artboard1" x="0" y="0" width="300" height="300" style="fill:none;"/>
    <g id="Artboard11" serif:id="Artboard1">
        <g id="lightbulb" transform="matrix(7.69999,0,0,7.69999,57.6047,57.6149)">
            <path d="M11.999,1.998C8.133,1.998 4.999,5.132 4.999,8.998C4.999,11.376 6.187,13.473 7.999,14.738L7.999,16.998C7.999,17.55 8.447,17.998 8.999,17.998L14.999,17.998C15.551,17.998 15.999,17.55 15.999,16.998L15.999,14.738C17.811,13.473 18.999,11.376 18.999,8.998C18.999,5.132 15.865,1.998 11.999,1.998ZM8.999,20.998C8.999,21.55 9.447,21.998 9.999,21.998L13.999,21.998C14.551,21.998 14.999,21.55 14.999,20.998L14.999,19.998L8.999,19.998L8.999,20.998Z" style="fill:rgb(211,82,129);fill-rule:nonzero;"/>
        </g>
    </g>
</svg>
