<?xml version="1.0" encoding="UTF-8" standalone="no"?>
<!DOCTYPE svg PUBLIC "-//W3C//DTD SVG 1.1//EN" "http://www.w3.org/Graphics/SVG/1.1/DTD/svg11.dtd">
<svg width="100%" height="100%" viewBox="0 0 111 65" version="1.1" xmlns="http://www.w3.org/2000/svg" xmlns:xlink="http://www.w3.org/1999/xlink" xml:space="preserve" xmlns:serif="http://www.serif.com/" style="fill-rule:evenodd;clip-rule:evenodd;stroke-linejoin:round;stroke-miterlimit:2;">
    <g transform="matrix(1,0,0,1,-596.876,0)">
        <g id="Artboard1" transform="matrix(0.220462,0,0,0.13,596.876,0)">
            <rect x="0" y="0" width="500" height="500" style="fill:none;"/>
            <g transform="matrix(2.92459,0,0,4.95969,-29.1968,-53.8672)">
                <g transform="matrix(101.911,0,0,101.911,28,95)">
                    <path d="M0.003,-0L0.284,-0.662L0.378,-0.662L0.659,-0L0.576,-0L0.495,-0.192L0.167,-0.192L0.086,-0L0.003,-0ZM0.196,-0.261L0.466,-0.261L0.331,-0.584L0.196,-0.261Z" style="fill:rgb(84,84,84);fill-rule:nonzero;"/>
                </g>
                <g transform="matrix(101.911,0,0,101.911,94.1405,95)">
                    <path d="M0.363,0.008C0.296,0.008 0.238,-0.007 0.19,-0.038C0.141,-0.068 0.104,-0.109 0.078,-0.16C0.052,-0.211 0.039,-0.268 0.039,-0.331C0.039,-0.394 0.052,-0.451 0.079,-0.502C0.106,-0.553 0.143,-0.594 0.193,-0.625C0.242,-0.655 0.299,-0.67 0.365,-0.67C0.436,-0.67 0.498,-0.653 0.551,-0.618C0.603,-0.583 0.641,-0.537 0.666,-0.482L0.584,-0.482C0.564,-0.517 0.536,-0.545 0.501,-0.566C0.465,-0.587 0.422,-0.597 0.371,-0.597C0.318,-0.597 0.272,-0.585 0.233,-0.562C0.194,-0.538 0.165,-0.506 0.145,-0.466C0.124,-0.426 0.114,-0.381 0.114,-0.331C0.114,-0.282 0.124,-0.237 0.144,-0.197C0.164,-0.156 0.193,-0.124 0.232,-0.101C0.27,-0.077 0.316,-0.065 0.369,-0.065C0.409,-0.065 0.447,-0.074 0.483,-0.091C0.518,-0.108 0.547,-0.133 0.57,-0.166C0.592,-0.199 0.603,-0.238 0.603,-0.284L0.361,-0.284L0.361,-0.352L0.672,-0.352L0.672,-0L0.603,-0L0.603,-0.117C0.589,-0.096 0.571,-0.076 0.549,-0.057C0.527,-0.038 0.501,-0.022 0.47,-0.01C0.439,0.002 0.403,0.008 0.363,0.008Z" style="fill:rgb(84,84,84);fill-rule:nonzero;"/>
                </g>
            </g>
        </g>
    </g>
</svg>
