<?xml version="1.0" encoding="UTF-8" standalone="no"?>
<!DOCTYPE svg PUBLIC "-//W3C//DTD SVG 1.1//EN" "http://www.w3.org/Graphics/SVG/1.1/DTD/svg11.dtd">
<svg width="100%" height="100%" viewBox="0 0 207 65" version="1.1" xmlns="http://www.w3.org/2000/svg" xmlns:xlink="http://www.w3.org/1999/xlink" xml:space="preserve" xmlns:serif="http://www.serif.com/" style="fill-rule:evenodd;clip-rule:evenodd;stroke-linejoin:round;stroke-miterlimit:2;">
    <g transform="matrix(1,0,0,1,-300.885,0)">
        <g id="Artboard1" transform="matrix(0.412462,0,0,0.13,300.885,0)">
            <rect x="0" y="0" width="500" height="500" style="fill:none;"/>
            <g transform="matrix(1.5632,0,0,4.95969,-1.08506,-106.655)">
                <g transform="matrix(101.911,0,0,101.911,28,95)">
                    <path d="M0.289,-0.672L0.398,-0.672L0.643,-0L0.496,-0L0.451,-0.139L0.189,-0.139L0.146,-0L0,-0L0.223,-0.627C0.234,-0.657 0.257,-0.672 0.289,-0.672ZM0.32,-0.537L0.227,-0.252L0.414,-0.252L0.32,-0.537Z" style="fill:rgb(57,57,57);fill-rule:nonzero;"/>
                </g>
                <g transform="matrix(101.911,0,0,101.911,96.6708,95)">
                    <path d="M0.453,-0L0.385,-0C0.365,-0 0.349,-0.006 0.337,-0.019C0.325,-0.031 0.318,-0.047 0.318,-0.066L0.318,-0.332C0.318,-0.363 0.309,-0.386 0.29,-0.4C0.271,-0.415 0.25,-0.422 0.227,-0.422C0.203,-0.422 0.182,-0.415 0.164,-0.4C0.146,-0.386 0.137,-0.363 0.137,-0.332L0.137,-0L0,-0L0,-0.305C0,-0.393 0.023,-0.452 0.069,-0.482C0.116,-0.512 0.167,-0.529 0.223,-0.531C0.28,-0.531 0.333,-0.516 0.381,-0.486C0.429,-0.456 0.453,-0.396 0.453,-0.305L0.453,-0Z" style="fill:rgb(57,57,57);fill-rule:nonzero;"/>
                </g>
                <g transform="matrix(101.911,0,0,101.911,145.039,95)">
                    <path d="M0.344,-0.031L0.344,-0.064C0.32,-0.028 0.289,-0.005 0.249,0.004C0.209,0.013 0.17,0.01 0.131,-0.006C0.092,-0.021 0.058,-0.05 0.03,-0.093C0.002,-0.135 -0.012,-0.191 -0.012,-0.26C-0.012,-0.34 0.007,-0.406 0.044,-0.456C0.081,-0.506 0.141,-0.531 0.223,-0.531C0.285,-0.531 0.343,-0.514 0.396,-0.48C0.45,-0.447 0.477,-0.384 0.477,-0.293L0.477,-0.018C0.477,0.074 0.45,0.136 0.396,0.169C0.343,0.202 0.285,0.219 0.223,0.219C0.103,0.219 0.029,0.163 0,0.051L0.143,0.051C0.153,0.069 0.169,0.083 0.19,0.093C0.212,0.103 0.233,0.105 0.255,0.101C0.276,0.096 0.296,0.083 0.313,0.063C0.331,0.042 0.341,0.01 0.344,-0.031ZM0.121,-0.256C0.121,-0.166 0.147,-0.116 0.199,-0.106C0.251,-0.097 0.29,-0.109 0.314,-0.143C0.326,-0.157 0.335,-0.179 0.34,-0.21C0.345,-0.241 0.345,-0.271 0.341,-0.301C0.336,-0.331 0.326,-0.357 0.309,-0.381C0.292,-0.404 0.267,-0.416 0.234,-0.416C0.19,-0.416 0.16,-0.4 0.145,-0.367C0.129,-0.335 0.121,-0.298 0.121,-0.256Z" style="fill:rgb(57,57,57);fill-rule:nonzero;"/>
                </g>
                <g transform="matrix(101.911,0,0,101.911,195.995,95)">
                    <path d="M0.453,-0.52L0.453,-0.215C0.453,-0.122 0.429,-0.062 0.381,-0.033C0.333,-0.005 0.28,0.01 0.223,0.01C0.167,0.007 0.116,-0.008 0.069,-0.037C0.023,-0.066 0,-0.125 0,-0.215L0,-0.52L0.137,-0.52L0.137,-0.188C0.137,-0.156 0.146,-0.133 0.164,-0.119C0.182,-0.105 0.203,-0.098 0.227,-0.098C0.25,-0.098 0.271,-0.105 0.29,-0.119C0.309,-0.133 0.318,-0.156 0.318,-0.188L0.318,-0.453C0.318,-0.471 0.325,-0.487 0.337,-0.5C0.349,-0.513 0.365,-0.52 0.385,-0.52L0.453,-0.52Z" style="fill:rgb(57,57,57);fill-rule:nonzero;"/>
                </g>
                <g transform="matrix(101.911,0,0,101.911,244.363,95)">
                    <path d="M-0.012,-0.172L0.121,-0.172C0.122,-0.146 0.132,-0.126 0.15,-0.113C0.17,-0.1 0.196,-0.094 0.229,-0.094C0.252,-0.094 0.272,-0.098 0.289,-0.107C0.305,-0.117 0.313,-0.129 0.313,-0.145C0.313,-0.168 0.285,-0.186 0.23,-0.197C0.207,-0.201 0.189,-0.205 0.178,-0.209C0.109,-0.226 0.063,-0.246 0.039,-0.27C0.013,-0.293 0,-0.324 0,-0.363C0,-0.413 0.019,-0.454 0.057,-0.486C0.096,-0.516 0.146,-0.531 0.209,-0.531C0.277,-0.531 0.331,-0.516 0.371,-0.486C0.409,-0.454 0.429,-0.411 0.432,-0.359L0.348,-0.359C0.323,-0.359 0.304,-0.37 0.291,-0.393C0.286,-0.398 0.281,-0.403 0.275,-0.408C0.26,-0.42 0.238,-0.426 0.211,-0.426C0.185,-0.426 0.165,-0.422 0.152,-0.414C0.141,-0.406 0.135,-0.395 0.135,-0.379C0.135,-0.358 0.169,-0.34 0.236,-0.326C0.244,-0.324 0.251,-0.322 0.257,-0.32C0.263,-0.319 0.268,-0.318 0.273,-0.318C0.34,-0.301 0.386,-0.282 0.412,-0.26C0.437,-0.236 0.449,-0.205 0.449,-0.166C0.449,-0.109 0.428,-0.064 0.387,-0.033C0.348,-0.005 0.289,0.01 0.211,0.01C0.137,0.01 0.081,-0.005 0.045,-0.035C0.007,-0.065 -0.012,-0.109 -0.012,-0.166L-0.012,-0.172Z" style="fill:rgb(57,57,57);fill-rule:nonzero;"/>
                </g>
            </g>
        </g>
    </g>
</svg>
